<?xml version="1.0" standalone="no"?>
<!DOCTYPE svg PUBLIC "-//W3C//DTD SVG 1.1//EN" "http://www.w3.org/Graphics/SVG/1.1/DTD/svg11.dtd" >
<!--
2013-9-30: Created.
-->
<svg>
<metadata>
Created by iconfont
</metadata>
<defs>

<font id="iconfont" horiz-adv-x="1024" >
  <font-face
    font-family="iconfont"
    font-weight="500"
    font-stretch="normal"
    units-per-em="1024"
    ascent="896"
    descent="-128"
  />
    <missing-glyph />
    
    <glyph glyph-name="youxituijian" unicode="&#58951;" d="M686.72 630.976c-27.648 0-56.512-15.616-87.040-32.128-29.44-15.936-62.72-33.92-89.472-33.92-25.536 0-55.424 16.384-84.288 32.192-31.744 17.472-61.76 33.856-92.992 33.856-182.272 0-303.168-302.976-303.168-503.36 0-49.92 7.552-90.56 22.528-120.768 19.136-38.72 50.944-60.032 89.6-60.032 63.616 0 110.912 39.104 161.088 80.576 56.832 46.976 115.52 95.552 206.656 95.552 79.040 0 141.632-48.128 202.304-94.656 54.464-41.728 105.856-81.28 165.632-81.28 38.656 0 70.528 21.312 89.664 60.032 14.912 30.272 22.528 70.848 22.528 120.832 0 200.32-120.896 503.104-303.040 503.104zM909.888 35.52c-10.752-21.696-22.848-24.448-32.32-24.448-38.080 0-79.104 31.488-126.656 68.032-65.792 50.56-140.416 107.904-241.216 107.904-114.176 0-188.096-61.12-247.488-110.208-42.752-35.392-79.744-65.92-120.256-65.92-9.408 0-21.568 2.752-32.256 24.384-10.368 21.056-15.872 52.992-15.872 92.416 0 173.504 107.136 439.36 239.168 439.36 14.848 0 38.912-13.184 62.208-25.92 34.304-18.752 73.152-40.064 115.072-40.064 42.944 0 83.84 22.080 119.872 41.6 21.184 11.456 45.248 24.448 56.704 24.448 131.968 0 238.976-265.664 238.976-439.040-0.064-39.552-5.568-71.488-15.936-92.544zM330.048 492.224c-74.688 0-135.424-60.736-135.424-135.424s60.736-135.36 135.424-135.36 135.36 60.672 135.36 135.36-60.672 135.424-135.36 135.424zM330.048 285.44c-39.36 0-71.424 32-71.424 71.36s32 71.424 71.424 71.424c39.36 0 71.36-32 71.36-71.424 0-39.296-32-71.36-71.36-71.36zM552.512 353.152c0-25.803 20.917-46.72 46.72-46.72s46.72 20.917 46.72 46.72c0 25.803-20.917 46.72-46.72 46.72-25.803 0-46.72-20.917-46.72-46.72zM636.288 266.112c0-25.838 20.946-46.784 46.784-46.784s46.784 20.946 46.784 46.784c0 25.838-20.946 46.784-46.784 46.784-25.838 0-46.784-20.946-46.784-46.784zM636.288 443.904c0-25.838 20.946-46.784 46.784-46.784s46.784 20.946 46.784 46.784c0 25.838-20.946 46.784-46.784 46.784-25.838 0-46.784-20.946-46.784-46.784zM722.688 353.024c-0-25.803 20.917-46.72 46.72-46.72s46.72 20.917 46.72 46.72c0 25.803-20.917 46.72-46.72 46.72-25.803 0-46.72-20.917-46.72-46.72z"  horiz-adv-x="1024" />

    
    <glyph glyph-name="fenxiang" unicode="&#58902;" d="M894.739692 812c-85.963487 0-155.648-70.445949-155.648-157.302154 0-15.071179 2.205538-29.643487 6.117744-43.428103l-454.761026-192.774564c-26.912821 47.104-77.141333 78.900513-134.80041 78.900513-85.937231 0-155.648-70.445949-155.648-157.407179 0-87.171282 69.710769-157.590974 155.648-157.590974 45.029744 0 85.517128 19.456 113.926564 50.386051l293.100308-212.992c-11.395282-21.897846-17.906872-46.841436-17.906872-73.334154 0-86.908718 69.421949-157.32841 155.359179-157.32841 85.937231 0 155.648 70.445949 155.648 157.32841 0 86.856205-69.710769 157.275897-155.648 157.275897-45.71241 0-86.724923-20.059897-115.108103-51.777641L292.391385 264.553846c12.051692 22.370462 18.904615 48.075487 18.904615 75.40841 0 14.677333-2.126769 28.803282-5.828923 42.246564l455.102359 192.932103c27.044103-46.473846 76.905026-77.771487 134.144-77.771487 85.963487 0 155.648 70.445949 155.648 157.32841C1050.387692 741.554051 980.703179 812 894.739692 812L894.739692 812zM700.153436 64.374974c64.380718 0 116.736-52.906667 116.736-117.970051 0-65.063385-52.355282-117.996308-116.736-117.996308s-116.630974 52.932923-116.630974 117.996308C583.522462 11.468308 635.798974 64.374974 700.153436 64.374974L700.153436 64.374974zM155.674256 221.677128c-64.380718 0-116.736 52.906667-116.736 118.285128 0 65.142154 52.355282 118.075077 116.736 118.075077 64.380718 0 116.736-52.906667 116.736-118.075077C272.410256 274.636308 220.054974 221.677128 155.674256 221.677128L155.674256 221.677128zM894.739692 536.675282c-64.380718 0-116.736 52.932923-116.736 117.996308s52.355282 117.970051 116.736 117.970051c64.380718 0 116.736-52.906667 116.736-117.970051S959.12041 536.675282 894.739692 536.675282L894.739692 536.675282z"  horiz-adv-x="1051" />

    
    <glyph glyph-name="night" unicode="&#58907;" d="M512 686.048c-53.248-50.176-86.016-120.832-86.016-198.656 0-151.552 122.88-273.408 273.408-273.408 78.848 0 149.504 33.792 199.68 86.016l74.752 0c0-254.976-205.824-460.8-460.8-460.8S51.2 45.024 51.2 300 257.024 760.8 512 760.8L512 686.048zM108.544 300c0-222.208 180.224-403.456 403.456-403.456 198.656 0 364.544 144.384 397.312 333.824-57.344-47.104-130.048-74.752-209.92-74.752-183.296 0-330.752 148.48-330.752 330.752 0 79.872 27.648 152.576 74.752 209.92C252.928 663.52 108.544 498.656 108.544 300z"  horiz-adv-x="1024" />

    
    <glyph glyph-name="massage" unicode="&#58899;" d="M950.784 615.093h-886.471v-654.083h895.373l-0 654.083h-8.903zM824.204 559.119l-312.204-343.209-312.204 343.209h624.408zM903.713 16.983h-783.426v542.136h3.888l387.927-426.402 387.927 426.402h3.888l0-542.136z"  horiz-adv-x="1024" />

    
    <glyph glyph-name="jiache" unicode="&#59147;" d="M419.916119 679.405081l-110.071273 0c-59.203934 0-90.605433-31.999924-105.0771-69.472031l-77.050864-196.729777c-30.559812-3.876383-84.628481-39.38658-84.628481-106.579244l0-250.288812 86.657288 0 0-62.326204c0-98.455504 117.288862-97.314604 117.288862 0l0 62.326204 529.930856 0 0-62.326204c0-97.314604 117.288862-98.455504 117.288862 0l0 62.326204 86.657288 0L980.911556 306.624029c0.027975 67.192664-54.063804 102.702861-84.581045 106.579244l0 0-77.031403 196.729777c-14.491128 37.472107-45.896276 69.472031-105.168324 69.472031l-108.797795 0L419.916119 679.405081zM231.721196 207.875395c-36.698533 0-66.483555 30.331145-66.483555 67.780142 0 37.473323 29.785022 67.804469 66.483555 67.804469s66.460445-30.331145 66.460445-67.804469C298.181641 238.201675 268.419729 207.875395 231.721196 207.875395L231.721196 207.875395zM207.461875 417.816741l57.992488 152.220095c7.255295 21.726962 18.121816 37.476972 43.545147 37.728748l406.067833 0c25.308998-0.251776 36.193764-16.001786 43.453924-37.728748l58.016815-152.220095L207.461875 417.816741 207.461875 417.816741zM792.303087 207.875395c-36.703398 0-66.460445 30.331145-66.460445 67.780142 0 37.473323 29.761912 67.804469 66.460445 67.804469 36.741104 0 66.5018-30.331145 66.5018-67.804469C858.804886 238.201675 829.042974 207.875395 792.303087 207.875395L792.303087 207.875395z"  horiz-adv-x="1024" />

    
    <glyph glyph-name="wodeshoucang" unicode="&#58911;" d="M392.976698-12.390823l-1.234107-0.162706c-1.388627-0.183172-139.510404-17.723663-197.026352 33.264615-16.202007 14.362102-23.951505 32.755008-23.693632 56.227606 1.423419 129.549541 113.843838 223.682455 217.695091 256.32183l31.299867 9.837042-25.205055 21.00336c-0.76441 0.63752-76.43995 64.936965-76.43995 171.963537 0 58.795081 36.730553 98.977245 67.543326 122.333186 36.449143 27.628244 83.638909 45.479821 120.223129 45.479821 29.599132 0 75.612095-11.562337 115.983571-44.014446 29.246091-23.509437 64.108087-65.667605 64.108087-133.008316 0-49.823755-12.777001-91.684142-37.97694-124.419707-18.343787-23.827685-37.031405-33.981952-38.125319-34.562167l-42.339294-20.522406 45.582151-12.720719c0.626263-0.174985 63.044872-17.814738 101.261265-47.537689l21.988804 28.27088c-24.642237 19.166525-56.703443 33.556257-80.497359 42.606377 6.085602 5.692652 12.615319 12.58769 19.097964 20.806885 21.361517 27.081799 46.824445 74.756611 46.824445 148.078547 0 34.008558-7.526417 65.766866-22.37152 94.389764-13.119809 25.298176-31.66314 47.682999-55.112202 66.533322-39.838334 32.022321-92.87834 51.915393-138.423653 51.915393-44.573171 0-98.930173-20.213367-141.857868-52.752458-52.700269-39.946804-81.724303-93.52814-81.724303-150.876266 0-51.17145 15.332197-101.786221 44.339858-146.370649 8.407484-12.922311 16.839527-23.62507 24.096814-31.955806-107.458407-43.399439-214.289528-144.413064-215.783555-280.407388-0.373507-34.015721 11.667737-62.09729 35.791158-83.460854 42.62582-37.751812 114.925473-45.342698 166.193113-45.340651 29.532617 0.001023 52.095495 2.520403 57.96518 3.244904l198.331068-1.524726 0.276293 35.814694-199.535499 1.534959L392.976698-12.390823zM898.016169 146.139773 785.712407 162.58635l-50.120514 101.839433-50.346665-101.726869L572.904627 146.499977l81.189114-79.316463-19.309788-111.847367 100.523461 52.705386 100.406804-52.93256-19.064194 111.893416L898.016169 146.139773zM735.353462 48.506129l-52.930513-27.752064 10.168594 58.891272-42.748616 41.762149 59.151191 8.529257 26.508747 53.561893 26.390044-53.621245 59.129702-8.659217-42.841737-41.669028 10.038634-58.910715L735.353462 48.506129z"  horiz-adv-x="1024" />

    
    <glyph glyph-name="bendiyinle" unicode="&#59092;" d="M958.208 79.264c0 7.04-1.28 493.184 0 555.392C960 725.984 874.816 748 833.472 740.768S433.28 669.664 362.688 650.656s-96-44.032-96-89.344 0-194.688 0-194.688L266.688 268l0-146.048c-18.624 9.088-39.296 14.592-61.376 14.592C127.232 136.48 64 73.248 64-4.768s63.232-141.248 141.248-141.248 141.248 63.232 141.248 141.248l0 27.456 0.128 0c0 0-0.064 45.888-0.128 109.12L346.496 268 346.368 268C346.304 379.168 346.304 488.544 346.688 500 347.52 528.032 352 552.992 374.016 562.976c22.4 10.176 438.592 86.144 469.248 91.456s34.048-23.808 34.048-23.808l0-424.128c-18.368 8.704-38.656 14.016-60.352 14.016-78.016 0-141.248-63.232-141.248-141.248s63.232-141.248 141.248-141.248c77.824 0 140.8 62.912 141.184 140.608l0.064 0C958.208 78.624 958.208 79.2 958.208 79.264L958.208 79.264 958.208 79.264z"  horiz-adv-x="1024" />

    
    <glyph glyph-name="jianyingyoujiantou-copy" unicode="&#58881;" d="M175.808 874.88c2.368 0 4.736-0.832 6.72-2.304l608.512-480c2.624-2.112 4.16-5.248 4.16-8.576s-1.472-6.464-4.096-8.512l-608.512-480c-3.392-2.624-7.872-3.072-11.584-1.28-3.84 1.728-6.144 5.632-6.144 9.728v960c0 4.096 2.304 8 6.144 9.728 1.536 0.832 3.2 1.216 4.8 1.216v0zM766.72 384l-580.032 457.472v-915.008l580.032 457.536z"  horiz-adv-x="1024" />

    
    <glyph glyph-name="sousuo" unicode="&#58981;" d="M733.044372 210.053296c0 0-14.44499-19.171642-33.878598-37.905308l223.233224-218.768539 37.030381 34.666544L733.044372 210.053296zM812.269761 447.205531c0-217.192647-167.293167-380.196115-374.680495-380.196115-216.229716 3.151783-373.017622 173.420725-373.017622 379.933125 0 199.508893 168.781054 367.67801 373.017622 367.67801C645.063575 814.620551 812.269761 644.263605 812.269761 447.205531zM436.275341 764.809075c-177.798429 0-321.718259-144.181797-321.718259-323.994092s144.094816-324.957023 321.80524-324.957023c177.798429 0 326.182944 145.144728 326.182944 324.957023S613.986789 764.809075 436.275341 764.809075z"  horiz-adv-x="1024" />

    
    <glyph glyph-name="tinggeshiqu" unicode="&#58959;" d="M897.986245 624.940038 837.751236 624.940038C837.751236 624.940038 837.751236 624.940038 837.751236 624.940038 837.751236 664.243381 812.512767 697.312402 777.516227 709.750931L777.516227 540.129144C777.516227 540.129144 777.516227 540.129144 777.516227 540.129144L777.516227 477.394382C777.516227 477.394382 777.516227 477.394382 777.516227 477.394382L777.516227 414.117505C777.516227 412.039397 776.733171 410.202229 776.311526 408.244591 776.672936 405.172606 777.516227 402.22109 777.516227 399.058752 777.516227 340.841616 716.829455 293.677603 641.987455 293.677603 567.145456 293.677603 506.458684 340.841616 506.458684 399.058752 506.458684 457.275889 567.085221 504.409784 641.866985 504.470019L642.04769 504.470019C648.462719 504.470019 654.305515 502.994261 660.509721 502.301559 659.545961 502.964144 658.732788 503.777316 657.799145 504.470019L717.281217 504.470019 717.281217 772.485693C727.009171 774.473449 737.068418 775.527561 747.398722 775.527561 830.553152 775.527561 897.986245 708.124586 897.986245 624.940038 897.986245 624.940038 897.986245 624.940038 897.986245 624.940038ZM641.987455 444.235009C600.395181 444.235009 566.693694 424.026164 566.693694 399.058752 566.693694 374.121458 600.395181 353.882495 641.987455 353.882495 683.579729 353.882495 717.281217 374.121458 717.281217 399.058752 717.281217 424.026164 683.579729 444.235009 641.987455 444.235009ZM446.223675 715.292552C363.069244 715.292552 295.636151 637.318332 295.636151 541.15314L295.636151 317.229492C295.636151 221.034182 363.069244 143.059962 446.223675 143.059962 502.965054 143.059962 551.785529 179.803318 577.445643 233.412476L648.191661 233.412476C622.26049 146.34277 541.696165 82.824953 446.223675 82.824953 329.789401 82.824953 235.401142 177.213213 235.401142 293.677603L235.401142 564.735146C235.401142 681.139302 329.789401 775.527561 446.223675 775.527561 562.657948 775.527561 657.046208 681.139302 657.046208 564.735146L657.046208 564.705028 594.763208 564.705028C584.734079 649.636392 522.420962 715.292552 446.223675 715.292552ZM446.223675 895.99758C446.28391 895.99758 446.314027 895.99758 446.374262 895.99758L446.073087 895.99758C446.133322 895.99758 446.16344 895.99758 446.223675 895.99758ZM446.223675 22.589943C553.080581 22.589943 645.240146 91.890322 689.36229 192.392435 688.03712 195.795713 687.163712 199.439931 687.163712 203.294972 687.163712 214.619153 693.638976 224.07605 702.854932 229.226143 703.276577 230.671783 703.96928 231.966836 704.390925 233.412476L717.220982 233.412476C717.2511 233.412476 717.2511 233.412476 717.281217 233.412476 717.311335 233.412476 717.311335 233.412476 717.341452 233.412476L766.643807 233.412476C732.249617 87.884694 617.140514-22.224904 476.341179-36.109073L476.341179-97.880076C476.341179-114.504938 462.848537-127.99758 446.223675-127.99758 429.598812-127.99758 416.10617-114.504938 416.10617-97.880076L416.10617-36.109073C275.306835-22.224904 160.197732 87.884694 125.803542 233.412476L175.105897 233.412476C175.136015 233.412476 175.136015 233.412476 175.166132 233.412476 175.19625 233.412476 175.19625 233.412476 175.226367 233.412476L188.056424 233.412476C188.478069 231.966836 189.140654 230.671783 189.592417 229.226143 198.808373 224.07605 205.283637 214.619153 205.283637 203.294972 205.283637 199.439931 204.410229 195.795713 203.085059 192.392435 247.207203 91.890322 339.366768 22.589943 446.223675 22.589943Z"  horiz-adv-x="1024" />

    
    <glyph glyph-name="lingsheng" unicode="&#58916;" d="M558.9-62.4c-28.1 0-68.8 9-103.2 51.6l-328 345.2c-4 3.6-16.4 15.4-29.1 32.7-21.1 28.5-32.4 56.8-33.6 84.2-1.3 29.4 9.4 56.9 31.1 79.6l0.8 0.8 0.8 0.7c3.7 3.4 37.9 33.2 88.1 33.2 21.9 0 43.1-5.6 63.4-16.8l157.5 146.9C411.3 700 525.1 803 659.6 803c68.2 0 129.1-26.1 181-77.6 82.8-82.1 109.1-184.9 76-297.2-24.2-82.2-72-140.1-74-142.5l-0.7-0.8-0.7-0.8-170.5-177.7c8.1-18.3 15.9-45.7 9.9-75.7-6.3-31.5-25.8-57.6-57.9-77.7l-0.9-0.6-1-0.5c-2.8-1.4-28-14.3-61.9-14.3zM139.8 487.2c-9.5-10.4-13.7-21-13.1-33.3 1.4-30.9 32.3-64.8 43-74.3l1-0.9 0.9-1 330.5-348 0.8-1.1c15.7-19.8 34-29.4 55.8-29.4 16.2 0 29.3 5.5 32.4 6.8 16.5 10.6 25.9 22.5 28.7 36.3 5.1 24.6-11.2 49.6-12.4 51.2l-15.3 20.8 18.2 18.4 185.1 193c5 6.3 43.2 55.6 62.2 121.6 25.9 89.7 5.4 168.5-60.7 234.1-40 39.6-86.2 59.7-137.5 59.7-109.5 0-208.1-88.2-211.2-91L254 468.9l-20.8 16.4c-15.6 12.3-31.6 18.5-47.5 18.5-24 0-42.4-13.7-45.9-16.6zM426.8 456.4c-6.6 0-13.3 2.1-19.1 6.3-14.2 10.5-17.1 30.6-6.6 44.8 32.5 43.7 71.2 84 115.1 119.7 40 32.6 78.2 54.5 113.5 65 53.3 15.9 101.8 6.4 140.1-27.5 13.2-11.7 14.5-31.9 2.7-45.2-11.7-13.2-31.9-14.5-45.2-2.7-39 34.5-96.4 21.3-170.8-39.2-39.8-32.4-74.8-68.8-104.2-108.3-6.1-8.5-15.7-12.9-25.5-12.9zM890.6 599l-42.9 47.5-0.3-0.2c2.3 2.1 30.5 29.3 33.5 32.2 19.4 20 19.9 51.8 1.3 72.5-18.8 20.9-50.5 23.5-72.4 6.1-2.2-2.1-9.8-9.3-14.5-13.8-7.2-6.9-7.8-7.5-8.5-8L744 782.8l-0.3-0.2c0.7 0.7 3.8 3.6 7.4 7 16 15.2 16.2 15.5 17.6 16.5 48.4 39.6 119.2 34.2 161.1-12.3 41.3-45.8 39.9-116.1-3.1-160.2-2-1.8-34.3-32.9-36.1-34.6zM302.3 2.7h-3.6c-44.6 0.9-86.2 19.2-117 51.4-63.7 66.5-61.5 172.4 5 236.1L231 244c-19.9-19-31.1-44.7-31.7-72.2-0.6-27.5 9.6-53.6 28.6-73.5s44.7-31.1 72.2-31.7c27.5-0.6 53.6 9.6 73.5 28.6l44.3-46.2c-31.4-29.9-72.3-46.3-115.6-46.3z"  horiz-adv-x="1024" />

    
    <glyph glyph-name="yinpingedan" unicode="&#58997;" d="M211.916 659.726h410.276c21.872 0 39.601 17.897 39.601 39.601 0 10.605-4.143 20.547-11.599 28.003-7.457 7.457-17.398 11.599-28.003 11.599h-410.276c-21.872 0-39.601-17.897-39.601-39.601s17.73-39.601 39.601-39.601zM211.916 345.39200000000005h318.975c21.872 0 39.601 17.897 39.601 39.601 0 10.605-4.143 20.547-11.599 28.003s-17.398 11.599-28.003 11.599h-318.975c-21.872 0-39.601-17.897-39.601-39.601s17.73-39.601 39.601-39.601zM658.479 424.762c-21.872 0-39.601-17.897-39.601-39.601s17.897-39.601 39.601-39.601h286.166c21.872 0 39.601 17.897 39.601 39.601 0 10.605-4.143 20.547-11.599 28.003-7.457 7.457-17.398 11.599-28.003 11.599h-286.166zM753.923 659.726h190.722c21.872 0 39.601 17.897 39.601 39.601 0 10.605-4.143 20.547-11.599 28.003-7.457 7.457-17.398 11.599-28.003 11.599h-190.722c-21.872 0-39.601-17.897-39.601-39.601s17.73-39.601 39.601-39.601zM70.407 738.931c-21.872 0-39.601-17.897-39.601-39.601 0-10.605 4.143-20.547 11.599-28.003 7.623-7.457 17.565-11.599 28.003-11.599 22.038 0 39.601 17.897 39.601 39.601s-17.73 39.601-39.601 39.601zM70.407 110.42700000000002c-21.872 0-39.601-17.897-39.601-39.601 0-10.605 4.143-20.547 11.599-28.003 7.623-7.457 17.565-11.599 28.003-11.599 22.038 0 39.601 17.73 39.601 39.601 0 21.707-17.73 39.601-39.601 39.601zM767.013 110.42700000000002h-555.098c-21.872 0-39.601-17.897-39.601-39.601s17.897-39.601 39.601-39.601h555.098c21.872 0 39.601 17.897 39.601 39.601s-17.73 39.601-39.601 39.601zM944.645 110.42700000000002h-46.894c-21.872 0-39.601-17.897-39.601-39.601s17.897-39.601 39.601-39.601h46.894c21.872 0 39.601 17.897 39.601 39.601s-17.73 39.601-39.601 39.601zM70.407 424.762c-21.872 0-39.601-17.897-39.601-39.601s17.897-39.601 39.601-39.601c22.038 0 39.601 17.897 39.601 39.601s-17.73 39.601-39.601 39.601z"  horiz-adv-x="1024" />

    
    <glyph glyph-name="check" unicode="&#59169;" d="M832 128v224c0 19.2-12.8 32-32 32s-32-12.8-32-32v-192c0-19.2-12.8-32-32-32h-576c-19.2 0-32 12.8-32 32v576c0 19.2 12.8 32 32 32h448c12.8 0 32 12.8 32 32s-19.2 32-32 32h-480c-32 0-64-32-64-64v-640c0-32 32-64 64-64h640c38.4 0 64 25.6 64 64zM928 448c-19.2 0-32-12.8-32-32v-416h-544c-19.2 0-32-12.8-32-32s12.8-32 32-32h576c19.2 0 32 12.8 32 32v448c0 19.2-12.8 32-32 32zM249.6 563.2c-12.8 12.8-32 19.2-44.8 6.4-12.8-12.8-19.2-32-6.4-44.8l192-256s6.4-12.8 25.6-12.8c12.8 0 25.6 12.8 25.6 12.8l512 441.6c12.8 12.8 12.8 32 0 44.8-12.8 12.8-32 12.8-44.8 0l-486.4-422.4-172.8 230.4z"  horiz-adv-x="1024" />

    
    <glyph glyph-name="fujinderen" unicode="&#58891;" d="M512.3 832.1c-164.9 0-298.5-133.6-298.5-298.5 0-138.4 210.4-484.7 277.9-586 4.9-7.4 12.7-11 20.6-11 7.8 0 15.7 3.7 20.6 11 67.5 101.3 277.9 447.5 277.9 586 0 164.9-133.7 298.5-298.5 298.5z m0-847.8c-89 136.6-261.2 436-261.2 549.4 0 144 117.2 261.2 261.2 261.2s261.2-117.2 261.2-261.2c0-113.4-172.2-412.9-261.2-549.4zM512.3 701.5c-72.1 0-130.6-58.5-130.6-130.6s58.5-130.6 130.6-130.6 130.6 58.5 130.6 130.6c0 72.2-58.5 130.6-130.6 130.6z m0-223.8c-51.4 0-93.3 41.8-93.3 93.3s41.8 93.3 93.3 93.3c51.4 0 93.3-41.8 93.3-93.3s-41.9-93.3-93.3-93.3z"  horiz-adv-x="1024" />

    
    <glyph glyph-name="haoyou" unicode="&#58983;" d="M847.872 289.792c-36.352 25.6-75.264 45.568-117.248 60.416 87.552 53.248 141.824 148.48 141.824 251.392C872.96 763.904 740.864 896 578.56 896S284.16 763.904 284.16 601.6c0-55.296 15.36-109.056 44.544-155.648 24.576-39.424 58.368-72.704 98.304-96.768-42.496-14.336-82.432-34.816-118.784-60.928-39.936-28.16-75.264-62.464-104.448-101.888-60.928-81.408-93.184-178.176-93.184-280.064a34.304 34.304 0 0 1 68.608 0c0 106.496 41.472 206.336 116.736 282.112 75.264 75.264 174.592 116.736 279.552 116.736 3.584-0.512 7.168 0 10.24 0.512l2.56 0.512c102.4-2.048 198.656-43.52 271.872-116.736 75.264-75.264 116.736-175.616 116.736-282.112a34.304 34.304 0 0 1 68.608 0c0 101.888-32.256 198.656-93.696 280.064-28.672 39.936-64 74.24-103.936 102.4M578.56 826.88c124.416 0 225.28-101.376 225.28-225.28 0-124.416-101.376-225.28-225.28-225.28-124.416 0-225.28 101.376-225.28 225.28 0 124.416 100.864 225.28 225.28 225.28z"  horiz-adv-x="1227" />

    
    <glyph glyph-name="xia" unicode="&#58882;" d="M402.75199999 749.248l-320-320c-24.992-24.992-24.992-65.504 0-90.496l320-320c24.992-24.992 65.504-24.992 90.496 0s24.992 65.504 0 90.496l-210.75199999 210.75199999 613.504 1e-8c35.36 0 64 28.64 64 64s-28.64 64-64 64l-613.504 1e-8 210.75199999 210.75199999c12.48 12.51200001 18.752 28.864 18.75200001 45.248s-6.24 32.768-18.75200001 45.248c-24.992 24.992-65.504 24.992-90.496 0z"  horiz-adv-x="1024" />

    
    <glyph glyph-name="shezhi" unicode="&#59002;" d="M858.323442-115.968H302.872507L26.37669 384 302.872507 883.968H858.323442l276.468792-499.968L858.323442-115.968zM811.056197 802.892108H350.139752L118.451878 384 350.139752-34.892108h460.916445l231.687874 418.892108L811.056197 802.892108z m-230.471735-647.20182c-125.721683 0-228.012433 103.020433-228.012433 229.688002 0 126.667568 102.29075 229.715027 228.012433 229.715027 125.721683 0 228.039459-103.047459 228.039458-229.715027 0-126.667568-102.317776-229.688002-228.039458-229.688002z m0 378.327137c-81.346145 0-147.531098-66.671408-147.531098-148.639135 0-81.940701 66.184953-148.61211 147.531098-148.61211s147.558123 66.671408 147.558123 148.61211c0 81.967727-66.211978 148.639135-147.558123 148.639135z"  horiz-adv-x="1162" />

    
    <glyph glyph-name="gudian" unicode="&#58901;" d="M619.42784 230.24128c9.09824 10.24 24.832 10.24 33.73568 0l55.35744-54.96832h1.51552l11.75552 2.27328 10.61376 1.51552 12.51328-3.7888 8.34048 10.23488 13.6448-0.75264 1.14176 15.5392 9.86112 6.4512 11.37152 6.06208-2.08896 13.27616 9.86112 8.71936-3.40992 12.50304-6.4512 10.24 3.23072 11.75552-7.77216 8.71936 0.74752 15.5392-12.12928 3.41504-3.22048 14.02368-11.37664 6.07232-12.50816-1.52064v0.75776c2.46272 21.9904 27.86304 27.6736 44.35968 62.93504 17.62304 34.49856-3.2256 89.472-12.32384 112.22016-9.28768 21.9904-23.87968 92.50816-32.03584 111.08352-8.52992 18.2016 0.75776 99.712-28.25216 131.93728-27.85792 32.22528-71.27552 47.7696-107.10016 59.52512-35.6352 11.7504-87.76704 61.79328-114.87232 67.4816-27.29472 5.2992-73.35936-16.6912-88.90368-40.94976-15.73376-25.02144-66.34496-25.02144-110.13632-41.32352-39.61856-14.40256-43.60192-65.20832-44.35968-91.74528l-1.8944 0.75776-7.20384-10.99264-11.75552-2.27328-3.40992-12.51328-6.63552-8.71936-8.72448-7.20384L204.288 637.7984l-5.87776-9.856-1.51552-10.99264-2.46272-11.75552-1.8944-10.23488-5.49888-9.47712-5.87776-10.24 0.75776-11.7504 3.98336-11.75552-3.98336-10.23488-1.8944-11.7504-0.56832-10.24-2.65216-10.99776v-22.74304l4.35712-10.24 6.63552-8.71936c-9.856-6.82496-15.73376-19.33312-14.976-38.29248 3.22048-41.32352 58.00448-65.20832 68.62336-65.20832-8.53504-17.81248-52.13184-49.28512-56.29952-100.08576-0.56832-11.75552 12.50816-22.74816 22.55872-31.46752 0.56832-3.03616 0.56832-5.30944 1.70496-7.19872 9.856-34.50368 27.86304-24.2688 41.89184-55.35232 3.2256-8.72448 7.39328-14.40768 12.51328-18.20672H377.5488c13.27104 0 24.26368-10.98752 24.26368-25.02656 0-13.26592-10.99264-23.5008-24.26368-23.5008H293.19168c-32.03584-33.7408-62.36672-90.99264-62.36672-194.49344 0 0 2.08384-0.74752 5.49888-2.26816h443.19232l5.12 2.26816c0 138.76224-54.21056 196.00896-94.21312 220.27264 7.20384 6.44096 14.98112 12.50816 21.61664 19.712 7.39328 6.83008 14.02368 14.78656 20.46976 22.74816 1.89952 2.27328 3.41504 4.55168 5.30944 6.82496l-18.38592 18.95424c-10.05568 8.7296-10.05568 25.0368-0.00512 33.75104z m-412.86656 8.72448c-4.736 8.33536-9.66656 15.54432-6.25152 22.74304 9.09824 20.096 17.24928 21.61152 17.24928 21.61152s-13.27104-17.82272-10.99776-44.35456z"  horiz-adv-x="1024" />

    
    <glyph glyph-name="clock" unicode="&#58889;" d="M707.1 390.3H547.9V646.2c0 1.1-0.9 2-2 2h-60.5c-1.1 0-2-0.9-2-2v-318.3c0-1.1 0.9-2 2-2H707c1.1 0 2 0.9 2 2v60.5c0.1 1-0.8 1.9-1.9 1.9zM804.2 60.5C882.4 136.70000000000005 931 243 931 360.5c0 95-31.8 182.7-85.3 253.1 23.6 24 36.9 56.1 36.9 90.3 0 71.1-57.8 128.9-128.9 128.9-50.4 0-94.9-28.8-116-72.6-39.7 12.5-81.9 19.3-125.7 19.3s-86-6.8-125.7-19.3c-21.1 43.5-65.6 72.6-116 72.6-71.1 0-128.9-57.8-128.9-128.9 0-34.3 13.6-66.6 36.9-90.3C124.8 543.3 93 455.5 93 360.5c0-110.5 43-211.1 113.1-286.1l-93.2-93.2c-0.8-0.8-0.8-2.1 0-2.8l42.8-42.8c0.8-0.8 2.1-0.8 2.8 0l95.2 95.2c71.2-55.9 161-89.3 258.3-89.3 90.3 0 174 28.7 242.5 77.5l83.3-83.3c0.8-0.8 2.1-0.8 2.8 0l42.8 42.8c0.8 0.8 0.8 2.1 0 2.8l-79.2 79.2z m-50.5 707.9c35.5 0 64.5-28.9 64.5-64.5 0-15.6-5.6-30.3-15.5-41.9-30.8 29.7-66.2 54.8-104.9 74 11.2 19.7 32.3 32.4 55.9 32.4z m-483.4 0c23.7 0 44.7-12.8 55.9-32.3-38.7-19.2-74.1-44.3-104.9-74-9.8 11.5-15.5 26.3-15.5 41.9 0 35.5 28.9 64.4 64.5 64.4zM157.5 360.5C157.5 556 316.5 715 512 715s354.5-159 354.5-354.5S707.5 6 512 6 157.5 165.10000000000002 157.5 360.5z"  horiz-adv-x="1024" />

    
    <glyph glyph-name="tuijian" unicode="&#58887;" d="M512.1-27.2c-6.8 0-13.5 2.6-18.7 7.8L374.2 99.5c-10.4 10.4-10.4 27.2 0 37.4 10.4 10.4 27.2 10.4 37.4 0L512 36.7l329.9 330c42.6 42.6 65.7 99.8 64.5 160.3-1.1 53.9-21.9 105.6-58.4 145.2-85.1 92-229.3 94.3-317.4 6.7-10.4-10.3-27.1-10.3-37.3 0-85.9 85.5-225.6 85.3-311.3-0.4-41.7-41.7-64.6-97.2-64.6-156.2 0.1-59 24.2-115.4 65.9-157l64.3-64.3c10.5-10.5 10.7-27.9 0-38.3-10.4-10-26.8-9.8-37.1 0.3l-66.1 66.1c-51.6 51.6-80.1 120.3-80.1 193.4s28.5 141.8 80.1 193.4C244.7 816.3 404.5 822.1 511.9 733.4 619.2 822.1 779.1 816.2 879.4 716c51.6-51.6 80.1-120.3 80.1-193.4S931 380.8 879.4 329.2L530.8-19.5c-5.2-5.2-11.9-7.7-18.7-7.7z m0 0M331.1 153.8c-6.8 0-13.5 2.6-18.7 7.8l-31.1 31.1c-10.4 10.4-10.4 27.2 0 37.4 10.4 10.4 27.2 10.4 37.4 0l31.1-31.1c10.4-10.4 10.4-27.2 0-37.4-5.2-5.2-12-7.8-18.7-7.8z m0 0M378.9 539c-18.7 0-33.8-15.1-33.8-33.8v-33c0-18.7 15.1-33.8 33.8-33.8 18.7 0 33.8 15.1 33.8 33.8v33c0 18.7-15.1 33.8-33.8 33.8z m0 0M642.7 539c-18.7 0-33.8-15.1-33.8-33.8v-33c0-18.7 15.1-33.8 33.8-33.8 18.7 0 33.8 15.1 33.8 33.8v33c0 18.7-15.2 33.8-33.8 33.8z m0 0M594.1 386c-15.5 10.2-36.3 5.8-46.7-9.5-0.1-0.2-14.7-21.4-37-21.4-21.6 0-35.1 19.6-36 21-9.9 15.6-30.6 20.4-46.3 10.6-15.9-9.8-20.7-30.7-10.9-46.5 12.1-19.5 45.4-52.6 93.2-52.6 47.6 0 81.2 32.8 93.7 52.2 10 15.5 5.5 36-10 46.2z m0 0"  horiz-adv-x="1024" />

    
    <glyph glyph-name="piao" unicode="&#59082;" d="M874.569143 21.211429c-197.193143-197.193143-519.68-199.241143-721.042286-4.096l-4.096 4.022857a515.218286 515.218286 0 0 0 0 725.723428C346.697143 943.981714 669.110857 946.029714 870.473143 750.884571l4.096-4.022857c199.241143-203.337143 199.241143-524.434286 0-725.723428z m-43.154286 680.96C658.870857 874.861714 375.369143 878.884571 200.777143 706.121143c-2.048 0-4.096-2.048-6.144-4.096a448.146286 448.146286 0 0 1 0-636.196572c172.617143-174.811429 456.045714-176.859429 630.637714-6.144l6.144 6.144c176.64 174.811429 176.64 459.337143 0 636.196572zM606.72 527.140571v-61.220571h101.668571v61.220571h-101.668571z m-190.902857-61.220571v61.220571H321.097143v-61.220571h94.793143z m50.907428 61.220571v-61.220571H556.617143v61.220571H466.651429z m-50.834285 38.326858v53.833142c-70.363429-0.731429-154.697143-2.048-196.461715-4.096v56.539429c57.782857-4.754286 135.168-8.045714 290.450286-8.045714 172.763429 0 232.667429 2.633143 293.302857 8.045714v-56.539429c-43.154286 2.706286-102.4 4.096-196.461714 4.096v-53.833142c53.686857 0.731429 118.491429 3.364571 159.524571 7.387428a395.117714 395.117714 0 0 1-6.290285-75.995428c0-28.891429 2.121143-58.514286 6.290285-76.653715a3993.380571 3993.380571 0 0 1-250.733714 7.314286c-95.451429 0-177.664-2.633143-250.806857-7.314286 4.169143 26.185143 5.558857 52.443429 5.558857 79.36 0 27.574857-1.389714 52.443429-5.558857 73.289143a3335.314286 3335.314286 0 0 1 151.186286-7.387428z m50.834285 53.833142v-53.833142H556.617143v53.833142H466.651429zM410.331429 222.500571c13.165714-2.633143 12.507429-8.777143-1.462858-12.726857-11.117714-3.364571-25.014857-9.508571-43.885714-28.306285-21.577143-21.504-65.462857-52.443429-96.109714-73.289143-8.338286 14.774857-27.794286 28.233143-48.713143 38.326857 52.224 26.258286 107.227429 62.537143 141.385143 105.618286 13.897143-12.8 32.036571-25.6 48.786286-29.622858z m378.88-53.76l-36.205715-50.468571c-38.985143 27.574857-95.451429 62.537143-147.017143 84.772571l31.451429 42.349715c50.102857-22.162286 98.157714-47.104 151.771429-76.653715z m-248.685715 92.818286v-98.889143c0-56.466286-2.779429-59.830857-102.4-76.068571a159.597714 159.597714 0 0 1-32.036571 65.974857c75.264-6.729143 78.774857-6.070857 78.774857 14.774857V261.558857c-123.318857 0-222.939429-2.048-265.435429-6.729143v57.124572c52.224-4.022857 135.826286-8.045714 292.571429-8.045715 169.984 0 229.156571 2.706286 292.571429 8.045715v-57.124572c-53.613714 4.022857-141.385143 6.729143-264.045715 6.729143z m191.634286 81.334857a3583.561143 3583.561143 0 0 1-221.549714 5.412572c-101.010286 0-165.814857-2.706286-221.549715-7.387429v55.808c55.076571-4.022857 120.539429-6.729143 221.549715-6.729143 100.278857 0 167.862857 2.706286 221.549714 6.729143v-53.833143z"  horiz-adv-x="1024" />

    
    <glyph glyph-name="FM" unicode="&#58886;" d="M822.9 386.7H595.2c-11 0-20 9-20 20.2 0 11 9 20.2 20 20.2h227.9c11 0 20-9.2 20-20.2-0.1-11.2-9.1-20.2-20.2-20.2zM769.2 271.7h-174c-11 0-20 9-20 20.2 0 11 9 20.3 20 20.3h173.9c11 0 20-9.2 20-20.3-0.1-11.2-8.9-20.2-19.9-20.2zM812.1 156.7H595.2c-11 0-20 9-20 20.2 0 11 9 20.3 20 20.3h216.9c11 0 20-9.2 20-20.3 0.1-11.2-8.9-20.2-20-20.2zM184.2 339zM477.6 343.9c-3.4 46.8-43 83.5-89.8 83.5-20.9 0-40.9-7.2-56.9-20.2-16 13-36 20.2-56.9 20.2-46.6 0-85-34.9-89.5-80.1-0.5-3.2-0.5-8.1-0.5-8.1 0-0.9 0.5-13.3 1.6-19.3 15.1-91.8 126.9-146.2 145.3-146.2 18.2 0 129.8 54.4 144.9 144.9 1.4 6.3 2 12.6 2 18.9 0.2 0.6 0.2 4.6-0.2 6.4z m-27.7-14.8c-12.1-71.8-98.8-117.4-119-125.8-20.2 8.1-107.1 54.2-119.2 127.1-0.5 2.3-0.9 10.3-1.1 13.3 0 0.2 0 1.6 0.2 3.6 2.9 28.8 26.8 50.6 55.8 50.6 16 0 31.3-7 41.8-18.9 5.6-6.3 13.7-9.9 22.3-9.9 8.5 0 16.6 3.6 22.3 9.9 10.6 11.9 25.9 18.9 41.8 18.9 29.2 0 53.8-22.7 56-53.1 0.2-1.1 0-2.7 0-2.9 0.7-3.8 0.2-7.9-0.9-12.8zM897.2 656.4H225.3L402 759c8.1 4.7 10.8 15.1 6.1 23-4.7 8.1-15.1 10.8-22.9 6.1L157.8 656.4H127c-35.8 0-65-29.2-65-65.2v-548.3c0-9 1.8-17.5 5.2-25.4 9.9-23.4 33.1-39.8 59.8-39.8h770c31.5 0 57.6 22.5 63.7 52.2 0.9 4.3 1.3 8.5 1.3 13V591.2c0.2 36-29 65.2-64.8 65.2z m24.5-192.8v-420.7c0-1.8-0.2-3.4-0.5-5-2.3-11.3-12.4-19.8-24.1-19.8H127.2c-11.9 0-21.8 8.5-24.1 19.8-0.2 1.6-0.5 3.4-0.5 5V591.2c0 13.7 11 25 24.7 25h769.9c13.5 0 24.7-11.3 24.7-25v-127.6h-0.2zM266.7 397.7c-29 0-53.1-21.8-55.8-50.6-0.2-2-0.2-3.4-0.2-3.6 0-2.9 0.7-11 1.1-13.3 12.1-72.9 99-119 119.2-127.1 20.2 8.1 106.9 54 119 125.8 1.1 5 1.4 8.8 1.4 12.8v2.9c-2.3 30.4-26.8 53.1-56 53.1-16 0-31.3-7-41.8-18.9-5.6-6.3-13.7-9.9-22.3-9.9-8.5 0-16.6 3.6-22.3 9.9-11 11.9-26.3 18.9-42.3 18.9z"  horiz-adv-x="1024" />

    
    <glyph glyph-name="xiazaiguanli" unicode="&#59282;" d="M546.474667 288.085333l123.4944 108.680534a35.84 35.84 0 0 0 50.926933 0 36.488533 36.488533 0 0 0 0-51.268267l-181.930667-160.017067a35.771733 35.771733 0 0 0-17.442133-9.693866 35.84 35.84 0 0 0-36.181333 8.977066L303.5136 344.746667a36.420267 36.420267 0 0 0 0 51.268266 35.805867 35.805867 0 0 0 50.8928 0l122.845867-108.032V860.398933c0 19.217067 15.496533 34.850133 34.6112 34.850134s34.6112-15.633067 34.6112-34.884267V288.085333z m130.048 467.6608c-19.114667 0-34.6112 15.633067-34.6112 34.884267 0 19.2512 15.496533 34.884267 34.6112 34.884267h166.8096c90.0096 0 162.952533-73.489067 162.952533-164.181334v-624.878933c0-90.658133-72.942933-164.181333-162.952533-164.181333H180.292267c-89.975467 0-162.952533 73.5232-162.952534 164.181333V661.333333c0 90.692267 72.977067 164.181333 162.952534 164.181334h171.1104c19.114667 0 34.6112-15.633067 34.6112-34.884267 0-19.2512-15.496533-34.884267-34.6112-34.884267H180.292267a94.071467 94.071467 0 0 1-93.730134-94.4128v-624.878933a94.071467 94.071467 0 0 1 93.730134-94.4128h663.04a94.037333 94.037333 0 0 1 93.730133 94.4128V661.333333a94.037333 94.037333 0 0 1-93.730133 94.4128H676.522667z"  horiz-adv-x="1024" />

    
    <glyph glyph-name="jiaoyou" unicode="&#58880;" d="M1011.554793 655.092965a112.123899 112.123899 0 0 1-108.097539-6.312514 133.074622 133.074622 0 0 1-45.245371-44.358207 15.917772 15.917772 0 0 0-22.639746-3.753387 11.942594 11.942594 0 0 0-6.278393 7.506774 170.966767 170.966767 0 0 1-42.737426 57.153844 140.308421 140.308421 0 0 1-38.966979 20.131801v-15.184155a370.118056 370.118056 0 0 0-26.393134-144.334782 436.587124 436.587124 0 0 0-81.704405-130.686103l-11.311343-11.26016v-1.364868c1.262503-2.559127 3.770448-5.118255 6.278393-8.871641 5.03295-6.312514 10.065901-11.430769 15.08179-17.743283a1636.544872 1636.544872 0 0 1 79.1794-81.039033 953.974428 953.974428 0 0 1 74.16351-64.660617 4.435821 4.435821 0 0 0 2.507945-2.559127 1.21132 1.21132 0 0 0 1.262503-1.19426 9.281102 9.281102 0 0 0 5.118254 4.947646c13.819288 6.483123 35.196531 19.108151 64.09761 36.851434a1664.712333 1664.712333 0 0 1 106.835036 75.920778 272.478818 272.478818 0 0 1 94.278251 121.814461 216.04153 216.04153 0 0 1 16.344293 91.104933 145.870258 145.870258 0 0 1-26.393133 77.285646 122.155678 122.155678 0 0 1-55.311272 40.60482zM517.574974 799.598356a16.651389 16.651389 0 0 0-10.04884 31.733179 120.910236 120.910236 0 0 0 129.457721-36.851434 171.717444 171.717444 0 0 0 38.966979-69.608264 214.181897 214.181897 0 0 0 3.770448-123.00872 16.87318 16.87318 0 0 0-20.114741-12.625029 16.327232 16.327232 0 0 0-11.311343 20.302411 197.462265 197.462265 0 0 1-2.507945 105.094829 158.836503 158.836503 0 0 1-32.688586 57.153844 103.422866 103.422866 0 0 1-47.770377 30.368311 101.716781 101.716781 0 0 1-47.770377-2.559127zM433.345562 150.774271a280.224443 280.224443 0 0 1 20.114741-110.213084 193.606514 193.606514 0 0 0-11.311342-161.054413 16.429598 16.429598 0 0 0-27.655637 17.743282 160.18431 160.18431 0 0 1 7.540896 133.074622 319.327909 319.327909 0 0 0-21.360183 119.084725 77.37095 77.37095 0 0 0-22.622686-1.194259 19.910011 19.910011 0 0 0-11.311343 3.753387c-1.262503 0-1.262503 1.364868-2.507944 1.364868a17.930952 17.930952 0 0 0-2.507945 25.250056 44.034051 44.034051 0 0 0 21.360183 15.184156 27.297358 27.297358 0 0 1 6.278392 3.923995 4.845281 4.845281 0 0 1-1.262503 2.559127c-17.589735 8.871641-46.507874 25.250056-85.474853 49.305854-40.229482 25.420665-90.422499 58.348103-149.572462 102.70631a417.376608 417.376608 0 0 0-130.720225 173.679442 314.346141 314.346141 0 0 0-21.360183 138.022268 225.203206 225.203206 0 0 0 42.652123 120.449593 207.920566 207.920566 0 0 0 90.422499 68.414004 191.422725 191.422725 0 0 0 134.490672 5.118255 216.894572 216.894572 0 0 0 94.26119-66.025485 207.80114 207.80114 0 0 0 81.704406 81.20964 187.51579 187.51579 0 0 0 133.24523 17.743283 200.652644 200.652644 0 0 0 99.29414-49.476462 223.036478 223.036478 0 0 0 61.589665-110.213084 37.277955 37.277955 0 0 0 2.525006-11.430768 124.544197 124.544197 0 0 0 65.360112-29.174052 185.622036 185.622036 0 0 0 40.229482-46.917334 186.765113 186.765113 0 0 0 40.212421 34.292306 151.193243 151.193243 0 0 0 137.015677 8.871641 163.78415 163.78415 0 0 0 69.13056-53.229848 186.560383 186.560383 0 0 0 32.671526-93.834669 268.878979 268.878979 0 0 0-18.852238-106.459698 317.109999 317.109999 0 0 0-104.327092-135.633749 1456.63822 1456.63822 0 0 0-110.605483-77.285645 1401.088096 1401.088096 0 0 0-60.344223-35.486566 7.847991 7.847991 0 0 1 3.770448-4.947646l7.540895-7.677382a16.617267 16.617267 0 0 0-1.245442-27.809184 23.595154 23.595154 0 0 0-28.918139-5.118254 269.561413 269.561413 0 0 1 5.032951-72.167391 146.569753 146.569753 0 0 0-22.622686-116.696207 15.934833 15.934833 0 0 0-22.622686-1.194259 15.201216 15.201216 0 0 0-2.525005 22.861537 106.852097 106.852097 0 0 1 16.344293 87.351547 265.978635 265.978635 0 0 0-5.03295 84.963027 42.157358 42.157358 0 0 0-13.819288 2.559128 19.193455 19.193455 0 0 0-10.04884 7.506773 15.235338 15.235338 0 0 0 1.245442 22.861538 32.5521 32.5521 0 0 0 18.852238 10.0659c-15.08179 12.795637-38.966979 32.927438-71.655566 63.466358a1682.302068 1682.302068 0 0 0-80.441902 82.233292c-6.278392 6.483123-11.311343 13.989896-17.589735 20.30241a16.514902 16.514902 0 0 1-3.770448 5.118255c-23.885188-25.420665-47.770377-48.111594-67.868057-68.414004-41.474924-39.239953-72.901007-65.854877-91.753245-81.039032-2.507945-6.483123 5.03295-10.236509 8.803398-12.795637a31.323719 31.323719 0 0 0 11.311342-6.312514 18.766934 18.766934 0 0 0 3.770448-30.368311 28.269827 28.269827 0 0 0-35.196531-8.871642z m520.355892 458.766228a16.702571 16.702571 0 0 0-18.852238 13.819287 17.060849 17.060849 0 0 0 13.819288 19.108151 84.792419 84.792419 0 0 0 50.278322-5.118255 99.328262 99.328262 0 0 0 45.245371-36.680825 149.350671 149.350671 0 0 0 22.639747-58.348103 175.45377 175.45377 0 0 0-10.065901-93.834669 17.777405 17.777405 0 0 0-21.360183-10.065901 18.067439 18.067439 0 0 0-10.065901 21.49667 140.939673 140.939673 0 0 1 10.065901 77.285645 124.987779 124.987779 0 0 1-17.606796 44.358207 81.58498 81.58498 0 0 1-30.163581 25.420665 60.634257 60.634257 0 0 1-33.934029 2.559128zM571.538439 859.140718a163.920636 163.920636 0 0 1-111.867987-13.989896 192.787593 192.787593 0 0 1-79.179399-91.104933 16.48078 16.48078 0 0 0-21.360183-8.871641 30.897197 30.897197 0 0 0-7.540896 6.312514A195.483207 195.483207 0 0 1 258.64247 827.407539a161.225022 161.225022 0 0 1-113.13049-6.312514 163.477054 163.477054 0 0 1-75.408952-55.788976 195.312598 195.312598 0 0 1-37.704476-103.90057 313.91962 313.91962 0 0 1 20.114741-124.20298 369.486805 369.486805 0 0 1 120.671384-158.324678c56.556714-43.163948 106.835036-77.285646 145.802015-101.341442s69.13056-40.60482 85.474853-49.476462c1.262503 0 2.507945-1.194259 3.770448-1.19426 1.262503-2.559127 3.770448-3.923995 5.03295-6.483122 1.262503 2.559127 2.507945 3.923995 3.770448 6.483122s2.507945 3.753387 3.770448 6.312515a1073.861013 1073.861013 0 0 1 93.015748 81.039032 2690.154657 2690.154657 0 0 1 101.819146 103.90057 375.048642 375.048642 0 0 1 93.015748 181.186215 362.065336 362.065336 0 0 1 6.295454 63.466358v7.506774a388.441408 388.441408 0 0 1-7.540895 53.229848 182.755814 182.755814 0 0 1-52.803328 93.83467 161.617422 161.617422 0 0 1-82.949847 41.799079zM1011.469489 655.092965a112.123899 112.123899 0 0 1-108.097539-6.312514 133.074622 133.074622 0 0 1-45.245371-44.358207 15.917772 15.917772 0 0 0-22.639747-3.753387 11.942594 11.942594 0 0 0-6.278392 7.506774 170.966767 170.966767 0 0 1-42.737427 57.153844 140.308421 140.308421 0 0 1-38.966979 20.131801v-15.184155a338.709034 338.709034 0 0 0-7.540895-78.479905 399.223865 399.223865 0 0 0-82.949847-174.873702v-1.364867l-1.262503-1.19426a1.313685 1.313685 0 0 1-1.262503-1.364868l-1.245442-1.194259c0-1.194259-1.262503-1.194259-1.262503-2.559128h-1.262502c-1.245442-1.194259-2.507945-3.753387-3.770448-5.118254h-1.160138c-1.262503-2.388519-2.507945-3.753387-3.770447-6.312514a4.316395 4.316395 0 0 1-2.507945-2.559128 18.766934 18.766934 0 0 1-5.032951-4.947646h-1.262502v-1.364868a25.471847 25.471847 0 0 1-5.032951-6.312514c1.262503-2.559127 3.770448-5.118255 6.278393-8.871641 5.03295-6.312514 10.065901-11.430769 15.08179-17.743283a1636.544872 1636.544872 0 0 1 79.1794-81.039033 953.974428 953.974428 0 0 1 74.16351-64.660617 4.435821 4.435821 0 0 0 2.507945-2.559127 1.21132 1.21132 0 0 0 1.262503-1.19426 9.281102 9.281102 0 0 0 5.118254 4.947646c13.819288 6.483123 35.196531 19.108151 64.09761 36.851434a1664.712333 1664.712333 0 0 1 106.835036 75.920778 272.478818 272.478818 0 0 1 94.278251 121.814461 216.04153 216.04153 0 0 1 16.344293 91.104933 145.870258 145.870258 0 0 1-26.393133 77.285646 122.155678 122.155678 0 0 1-55.311272 40.60482z"  horiz-adv-x="1126" />

    
    <glyph glyph-name="pinglun" unicode="&#58900;" d="M872.780639 458.020179c-19.254639 45.481408-46.781909 86.302688-81.823185 121.380089-35.041276 35.041276-75.898681 62.568546-121.380089 81.823185-47.070909 19.90489-97.067946 29.983772-148.654483 29.983772-51.586538 0-101.547449-10.115007-148.654484-29.983772-45.481408-19.254639-86.302688-46.781909-121.380089-81.823185-35.041276-35.041276-62.568546-75.898681-81.823185-121.380089-19.90489-47.107035-30.019897-97.140196-30.019897-148.654484 0-68.529175 18.387638-135.721724 53.176039-194.461017 0.1445-1.517251 0.252875-6.24963-2.492627-17.556763-2.564877-10.512383-6.647005-23.192267-10.656883-35.474776-13.330135-41.074155-24.854018-76.621181-4.479503-97.140196 13.87201-14.052635 34.824526-11.957384 49.346786-9.211882 14.594511 2.817752 31.428773 8.200381 47.64891 13.474635 12.210259 4.009878 24.854018 8.092006 35.366401 10.584633 11.162633 2.637127 15.967262 2.564877 17.484513 2.420377 59.136668-35.547026 126.979468-54.295915 196.375643-54.295915 51.080787-0.07225 101.655824 10.078882 148.726734 29.839272 45.481408 19.254639 86.302688 46.781909 121.380089 81.823185 35.041276 35.041276 62.568546 75.898681 81.823185 121.380088 19.90489 47.107035 29.983772 97.067946 29.983772 148.654484 0.036125 51.550413-10.078882 101.511324-29.947647 148.618359z m-33.018274-283.256332c-17.412263-41.218655-42.374656-78.210682-74.200804-110.036831a346.095816 346.095816 0 0 0-110.036831-74.200804c-42.699781-18.062513-88.036689-27.202145-134.782474-27.202145-63.291046 0-125.209342 17.231638-179.035631 49.852536-6.936005 4.190503-15.064136 5.924504-24.239892 5.924505-18.785014 0-41.724406-7.40563-67.084175-15.569887-12.788259-4.118253-26.118394-8.417131-37.172652-11.054258-6.105129-1.481126-10.367883-2.131377-13.36626-2.384252 0.252875 2.962252 0.903126 7.26113 2.384252 13.43851 2.637127 11.126508 7.008255 24.492768 11.198758 37.353278 12.210259 37.497777 22.758767 69.901926 9.898258 91.324067-31.898398 53.428914-48.804911 114.733084-48.804911 177.301629 0 46.745784 9.139632 92.082692 27.202145 134.782474 17.376138 41.218655 42.374656 78.210682 74.200804 110.036831a346.095816 346.095816 0 0 0 110.036831 74.200804c42.699781 18.062513 88.036689 27.202145 134.782473 27.202145 46.745784 0 92.082692-9.139632 134.782474-27.202145 41.218655-17.412263 78.210682-42.374656 110.036831-74.200804a346.095816 346.095816 0 0 0 74.200804-110.036831c18.062513-42.699781 27.202145-88.036689 27.202145-134.782474 0-46.709659-9.139632-92.046567-27.202145-134.746348zM698.694137 359.001482h-355.10901c-9.789882 0-17.737388 7.947506-17.737388 17.737388s7.947506 17.737388 17.737388 17.737388h355.10901c9.789882 0 17.737388-7.947506 17.737388-17.737388s-7.947506-17.737388-17.737388-17.737388zM640.099344 227.145135H343.187751c-9.789882 0-17.737388 7.947506-17.737388 17.737388s7.947506 17.737388 17.737388 17.737388h296.911593c9.789882 0 17.737388-7.947506 17.737388-17.737388s-7.947506-17.737388-17.737388-17.737388z"  horiz-adv-x="1024" />

    
    <glyph glyph-name="paobu" unicode="&#59149;" d="M897.706667 431.786667c-3.413333 11.946667-13.653333 30.72-61.44 37.546666-6.826667 0-11.946667 1.706667-18.773334 1.706667-42.666667 5.12-64.853333 6.826667-76.8 23.893333-13.653333 20.48-30.72 49.493333-37.546666 59.733334 1.706667 25.6-29.013333 63.146667-75.093334 92.16-32.426667 20.48-66.56 30.72-102.4 30.72-20.48 0-40.96-3.413333-61.44-10.24-39.253333-13.653333-150.186667-63.146667-177.493333-102.4-11.946667-17.066667-8.533333-30.72-5.12-37.546667 6.826667-13.653333 22.186667-20.48 44.373333-20.48s47.786667 8.533333 71.68 22.186667c34.133333 20.48 71.68 34.133333 95.573334 34.133333 8.533333 0 11.946667-1.706667 13.653333-3.413333 0-1.706667 1.706667-13.653333-22.186667-51.2-17.066667-25.6-39.253333-52.906667-52.906666-64.853334-23.893333-23.893333-47.786667-66.56-46.08-95.573333 0-5.12 1.706667-10.24 3.413333-13.653333-10.24-11.946667-25.6-29.013333-42.666667-49.493334-3.413333-5.12-17.066667-11.946667-61.44-11.946666-15.36 0-32.426667 1.706667-47.786666 1.706666-13.653333 0-29.013333 1.706667-40.96 1.706667-13.653333 0-23.893333-1.706667-30.72-3.413333-23.893333-6.826667-37.546667-25.6-37.546667-49.493334 0-22.186667 13.653333-49.493333 39.253333-54.613333 22.186667-5.12 104.106667-13.653333 163.84-13.653333 29.013333 0 49.493333 1.706667 63.146667 5.12 22.186667 6.826667 47.786667 30.72 73.386667 71.68 10.24 17.066667 18.773333 32.426667 23.893333 44.373333 11.946667-6.826667 22.186667-11.946667 30.72-17.066667 34.133333-20.48 37.546667-29.013333 39.253333-29.013333 1.706667-11.946667-1.706667-39.253333-10.24-69.973333-8.533333-32.426667-20.48-63.146667-32.426666-83.626667-17.066667-29.013333-22.186667-63.146667-10.24-85.333333 6.826667-11.946667 18.773333-20.48 32.426666-20.48 8.533333 0 17.066667 3.413333 27.306667 8.533333 44.373333 25.6 76.8 88.746667 105.813333 143.36 1.706667 3.413333 5.12 8.533333 6.826667 11.946667 13.653333 25.6 29.013333 56.32 35.84 81.92 10.24 44.373333-8.533333 66.56-27.306667 76.8-29.013333 17.066667-90.453333 51.2-98.986666 83.626666-1.706667 8.533333 0 15.36 5.12 22.186667 8.533333 13.653333 22.186667 30.72 37.546666 51.2 11.946667-20.48 32.426667-54.613333 56.32-71.68 13.653333-10.24 37.546667-15.36 69.973334-15.36 44.373333 0 98.986667 10.24 119.466666 23.893333 13.653333 11.946667 22.186667 27.306667 18.773334 44.373334zM433.493333 249.173333c-27.306667-44.373333-46.08-54.613333-54.613333-56.32-6.826667-1.706667-22.186667-5.12-54.613333-5.12-59.733333 0-136.533333 8.533333-155.306667 13.653334-6.826667 1.706667-13.653333 11.946667-13.653333 22.186666 0 8.533333 3.413333 15.36 11.946666 17.066667 5.12 1.706667 11.946667 1.706667 22.186667 1.706667 11.946667 0 25.6 0 39.253333-1.706667 17.066667 0 34.133333-1.706667 51.2-1.706667 30.72 0 68.266667 3.413333 87.04 23.893334 17.066667 20.48 32.426667 37.546667 42.666667 49.493333l44.373333-25.6c-3.413333-8.533333-11.946667-22.186667-20.48-37.546667z m133.12 177.493334l-3.413333-6.826667c-10.24-15.36-13.653333-32.426667-10.24-49.493333 11.946667-47.786667 78.506667-85.333333 114.346667-105.813334 27.306667-15.36 6.826667-58.026667-22.186667-112.64-1.706667-5.12-5.12-8.533333-6.826667-13.653333-25.6-51.2-56.32-109.226667-92.16-129.706667-3.413333-1.706667-8.533333-3.413333-10.24-3.413333-1.706667 0-1.706667 0-3.413333 3.413333-6.826667 11.946667 0 34.133333 8.533333 49.493334 13.653333 22.186667 27.306667 56.32 37.546667 92.16 5.12 17.066667 15.36 59.733333 10.24 85.333333-1.706667 13.653333-13.653333 25.6-35.84 40.96-18.773333 13.653333-47.786667 29.013333-95.573333 52.906667-10.24 5.12-22.186667 10.24-29.013334 15.36l-11.946666 5.12s-1.706667 1.706667-1.706667 3.413333c-1.706667 15.36 15.36 47.786667 35.84 68.266667 15.36 15.36 39.253333 42.666667 58.026667 71.68 25.6 39.253333 34.133333 64.853333 23.893333 83.626666-5.12 10.24-17.066667 22.186667-44.373333 22.186667-30.72 0-73.386667-15.36-112.64-39.253333-17.066667-10.24-37.546667-17.066667-54.613334-17.066667-6.826667 0-10.24 1.706667-11.946666 1.706667 0 0 0 1.706667 1.706666 3.413333 8.533333 11.946667 34.133333 30.72 71.68 49.493333 30.72 15.36 66.56 32.426667 88.746667 39.253334 17.066667 5.12 34.133333 8.533333 51.2 8.533333 29.013333 0 56.32-8.533333 83.626667-25.6s40.96-32.426667 49.493333-40.96c8.533333-10.24 10.24-17.066667 10.24-18.773333l-5.12-6.826667c-6.826667-8.533333-17.066667-20.48-25.6-32.426667-17.066667-27.306667-46.08-63.146667-68.266667-93.866666z m290.133334-10.24c-13.653333-8.533333-59.733333-18.773333-100.693334-18.773334-23.893333 0-42.666667 3.413333-49.493333 8.533334-22.186667 17.066667-42.666667 52.906667-51.2 69.973333l30.72 44.373333c11.946667-18.773333 20.48-34.133333 29.013333-46.08 20.48-30.72 56.32-34.133333 100.693334-39.253333 5.12 0 11.946667-1.706667 18.773333-1.706667 22.186667-1.706667 30.72-8.533333 32.426667-10.24-3.413333 0-5.12-3.413333-10.24-6.826666z m-158.72 203.093333c52.906667 0 95.573333 42.666667 95.573333 95.573333S750.933333 810.666667 698.026667 810.666667c-52.906667 0-95.573333-42.666667-95.573334-95.573334s42.666667-95.573333 95.573334-95.573333z m0 157.013333c34.133333 0 61.44-27.306667 61.44-61.44s-27.306667-61.44-61.44-61.44-61.44 27.306667-61.44 61.44S663.893333 776.533333 698.026667 776.533333z"  horiz-adv-x="1024" />

    
    <glyph glyph-name="zuijinbofang" unicode="&#58885;" d="M512.518 797.772C283.962 797.772 98 611.822 98 383.255s185.962-414.518 414.518-414.518c12.729 0 23.029 10.311 23.029 23.029s-10.3 23.029-23.029 23.029c-203.166 0-368.46 165.294-368.46 368.46s165.294 368.46 368.46 368.46 368.46-165.294 368.46-368.46c0-12.718 10.3-23.029 23.029-23.029s23.029 10.311 23.029 23.029c0 228.567-185.962 414.517-414.518 414.517zM650.69 199.024c-12.729 0-23.029-10.311-23.029-23.029v-184.23c0-12.718 10.3-23.029 23.029-23.029s23.029 10.311 23.029 23.029v184.23c0 12.718-10.3 23.029-23.029 23.029zM765.834 337.197c-12.729 0-23.029-10.311-23.029-23.029v-322.403c0-12.718 10.3-23.029 23.029-23.029s23.029 10.311 23.029 23.029V314.168c0 12.718-10.3 23.029-23.029 23.029zM880.978 199.024c-12.729 0-23.029-10.311-23.029-23.029v-184.23c0-12.718 10.3-23.029 23.029-23.029s23.029 10.311 23.029 23.029v184.23c0 12.718-10.3 23.029-23.029 23.029zM654.584 429.02l-212.51 113.32a46.024 46.024 0 0 1-21.67 5.417 46.057 46.057 0 0 1-46.053-46.817l3.854-233.589a46.061 46.061 0 0 1 46.052-45.298 46.034 46.034 0 0 1 23.001 6.154l208.656 120.269a46.06 46.06 0 0 1-1.33 80.544zM424.257 268.111L420.403 501.7l212.51-113.319-208.656-120.27z"  horiz-adv-x="1024" />

    
    <glyph glyph-name="bofang" unicode="&#59018;" d="M412.708 574.638c-10.242 5.912-23.042-1.479-23.042-13.303v-353.921c0-11.825 12.8-19.216 23.042-13.304l306.504 176.962c10.242 5.912 10.242 20.694 0 26.604L412.708 574.638z m7.68-341.52V534.177l260.725-150.53-260.725-150.529zM511.97 832.132c-247.291 0-447.758-200.469-447.758-447.758 0-247.291 200.467-447.758 447.758-447.758 112.729 0 215.646 41.752 294.36 110.515l-28.307 25.993c-71.581-61.246-164.461-98.317-266.053-98.317-226.197 0-409.567 183.369-409.567 409.567 0 226.196 183.369 409.566 409.567 409.566 226.196 0 409.565-183.369 409.565-409.566 0-90.933-29.678-174.913-79.817-242.871l28.301-25.989c56.312 74.874 89.708 167.96 89.708 268.86 0 247.289-200.468 447.758-447.757 447.758z"  horiz-adv-x="1024" />

    
    <glyph glyph-name="dingshi" unicode="&#58930;" d="M704.512 858.112c0-20.992-16.896-37.888-37.888-37.888H350.72c-20.992 0-37.888 16.896-37.888 37.888 0 20.992 16.896 37.888 37.888 37.888h316.416c20.48 0 37.376-16.896 37.376-37.888zM527.872 264.192c-20.992 0-37.888 16.896-37.888 37.888V526.336c0 20.992 16.896 37.888 37.888 37.888 20.992 0 37.888-16.896 37.888-37.888V302.08c0-20.992-16.896-37.888-37.888-37.888zM489.984 302.08c0 20.992 16.896 37.888 37.888 37.888h139.264c20.992 0 37.888-16.896 37.888-37.888 0-20.992-16.896-37.888-37.888-37.888h-139.264c-20.992 0-37.888 16.896-37.888 37.888zM967.168 327.68c0-250.88-203.264-454.656-454.144-454.656S58.368 76.8 58.368 327.68s203.264 454.656 454.656 454.656S967.168 578.56 967.168 327.68z m-453.12 378.88c-208.896 0-378.368-169.472-378.368-378.88s169.472-378.368 378.368-378.368 378.368 169.472 378.368 378.368-169.472 378.88-378.368 378.88z"  horiz-adv-x="1024" />

    
    <glyph glyph-name="dengpao" unicode="&#58897;" d="M153.06 399.694H72.372c-14.789 0-26.777 11.987-26.777 26.776s11.988 26.776 26.777 26.776h80.688c14.789 0 26.776-11.988 26.776-26.776s-11.987-26.776-26.776-26.776z m800.986 0h-80.688c-14.789 0-26.776 11.987-26.776 26.776s11.987 26.776 26.776 26.776h80.688c14.789 0 26.777-11.988 26.777-26.776s-11.988-26.776-26.777-26.776zM201.49 87.974a26.69 26.69 0 0 0-18.934 7.84c-10.457 10.458-10.457 27.412 0 37.868l57.056 57.056c10.458 10.457 27.411 10.458 37.867 0.001s10.458-27.41 0-37.867l-57.056-57.056a26.692 26.692 0 0 0-18.933-7.843z m566.383 566.382a26.693 26.693 0 0 0-18.935 7.843c-10.458 10.457-10.456 27.41 0.001 37.867l57.056 57.056c10.458 10.456 27.411 10.457 37.867 0s10.456-27.41-0.001-37.867l-57.056-57.056a26.686 26.686 0 0 0-18.932-7.843zM513.208 759.841c-14.789 0-26.777 11.988-26.777 26.776v80.69c0 14.789 11.988 26.776 26.777 26.776s26.776-11.987 26.776-26.776v-80.69c0-14.788-11.988-26.776-26.776-26.776z m311.72-671.868a26.699 26.699 0 0 0-18.935 7.842l-57.056 57.056c-10.456 10.457-10.456 27.412 0 37.868 10.457 10.457 27.412 10.457 37.868 0l57.056-57.056c10.456-10.457 10.456-27.412 0-37.868a26.688 26.688 0 0 0-18.933-7.842zM258.545 654.356a26.692 26.692 0 0 0-18.934 7.843l-57.056 57.056c-10.457 10.457-10.457 27.41 0 37.867s27.411 10.457 37.867 0l57.056-57.056c10.458-10.458 10.458-27.41 0-37.867a26.692 26.692 0 0 0-18.933-7.843zM401.5-31.792c-11.933 0-22.812 8.033-25.915 20.123-3.678 14.324 4.952 28.917 19.276 32.595l226.486 58.148c14.321 3.67 28.916-4.95 32.595-19.276 3.676-14.324-4.954-28.917-19.276-32.594l-226.487-58.149a26.867 26.867 0 0 0-6.679-0.847zM401.5 51.053c-11.933 0-22.812 8.033-25.915 20.124-3.678 14.324 4.952 28.917 19.276 32.594l208.618 53.562c6.913 50.555 20.69 79.624 21.34 80.974a26.768 26.768 0 0 0 9.39 10.738c61.489 40.524 98.199 108.613 98.199 182.141 0 120.182-97.776 217.958-217.96 217.958-120.181 0-217.956-97.776-217.956-217.958 0-81.315 44.772-155.323 116.846-193.142 13.095-6.87 18.14-23.056 11.269-36.151-6.87-13.094-23.056-18.144-36.152-11.27C298.698 237.723 242.94 329.9 242.94 431.187c0 149.711 121.8 271.51 271.509 271.51 149.712 0 271.511-121.799 271.511-271.51 0-88.777-42.945-171.177-115.313-222.108-4.189-11.178-12.542-37.317-15.973-75.491a26.776 26.776 0 0 0-20.01-23.538L408.178 51.9a26.91 26.91 0 0 0-6.678-0.846zM512-111.198c-27.969 0-55.249 9.774-76.814 27.523-11.417 9.397-13.056 26.271-3.66 37.689 9.398 11.418 26.274 13.058 37.691 3.659 12.178-10.021 26.972-15.319 42.783-15.319 15.845 0 30.663 5.318 42.853 15.376 11.405 9.41 28.28 7.8 37.694-3.607 9.413-11.406 7.797-28.282-3.607-37.694-21.587-17.817-48.91-27.627-76.94-27.627z"  horiz-adv-x="1024" />

    
    <glyph glyph-name="tuichu" unicode="&#59213;" d="M501.148282 384.991638a37.542166 37.542166 0 0 0-38.245683 36.710738V859.097394C462.902599 879.435399 480.042805 896 501.148282 896c21.169433 0 38.373594-16.628557 38.373594-36.902606v-437.20315a37.606122 37.606122 0 0 0-38.309638-36.902606zM489.636203-127.295845a497.385736 497.385736 0 0 0-346.001907 138.272851A470.460265 470.460265 0 0 0 38.746472 161.01776a457.413243 457.413243 0 0 0 17.587897 402.794826A483.187507 483.187507 0 0 0 205.223915 728.435305a39.205022 39.205022 0 0 0 53.467207-8.570102 35.943267 35.943267 0 0 0-8.953838-51.35666 408.422954 408.422954 0 0 1-125.609565-139.040323 380.857922 380.857922 0 0 1-47.263477-184.576988c0-106.422768 42.978425-206.449937 121.004734-281.662181a417.760529 417.760529 0 0 1 291.895139-116.655727 418.016352 418.016352 0 0 1 291.89514 116.591771 388.596597 388.596597 0 0 1 120.876822 281.726137 380.538142 380.538142 0 0 1-47.135565 184.576988 408.039218 408.039218 0 0 1-125.801433 138.912411 35.943267 35.943267 0 0 0-9.401531 50.653144l0.63956 0.767472a39.141066 39.141066 0 0 0 53.403252 8.570102 482.547947 482.547947 0 0 0 148.82559-164.558763 456.965551 456.965551 0 0 0 17.651853-402.794826 469.820705 469.820705 0 0 0-104.887824-150.10471 489.902886 489.902886 0 0 0-155.540969-101.178376A503.461556 503.461556 0 0 0 489.636203-127.295845z"  horiz-adv-x="1024" />

    
    <glyph glyph-name="caidan-dian" unicode="&#58884;" d="M431.158 761.263c0 0 0 0 0 0 0-44.648 36.194-80.842 80.842-80.842 44.648 0 80.842 36.194 80.842 80.842 0 0 0 0 0 0 0 44.648-36.194 80.842-80.842 80.842-44.648 0-80.842-36.194-80.842-80.842zM431.158 384c0 0 0 0 0 0 0-44.648 36.194-80.842 80.842-80.842 44.648 0 80.842 36.194 80.842 80.842 0 0 0 0 0 0 0 44.648-36.194 80.842-80.842 80.842-44.648 0-80.842-36.194-80.842-80.842zM431.158 6.736999999999966c0 0 0 0 0 0 0-44.648 36.194-80.842 80.842-80.842 44.648 0 80.842 36.194 80.842 80.842 0 0 0 0 0 0 0 44.648-36.194 80.842-80.842 80.842-44.648 0-80.842-36.194-80.842-80.842z"  horiz-adv-x="1024" />

    
    <glyph glyph-name="youhuijuan" unicode="&#58985;" d="M623.473708 836.425151c-17.872455 17.872455-46.85791 17.872455-64.730365 0L59.002014 336.683822c-17.757888-17.872455-17.757888-46.743343 0-64.730365l63.126426-63.126426c79.853211 37.921683 175.402103 3.895279 213.323786-75.957933 20.622063-43.4209 20.622063-93.944954 0-137.365853l63.126427-63.126427c17.872455-17.872455 46.85791-17.872455 64.730365 0l499.855896 499.741329c17.757888 17.872455 17.757888 46.743343 0 64.730365l-48.347281 48.232714c-75.499664-46.055941-174.027299-22.226001-220.083241 53.273663-31.276796 51.211457-31.276796 115.59812 0 166.809577l-71.260684 71.260685z m371.884538-307.26874c35.630342-35.744909 35.630342-93.601253 0-129.346163L495.731484-99.931081c-35.744909-35.744909-93.601253-35.744909-129.346163 0L277.252182-10.912508c41.47326 47.659879 36.432311 119.951667-11.227568 161.424927-43.077198 37.348848-107.005594 37.463415-150.082793 0l-89.133139 89.133139c-35.630342 35.744909-35.630342 93.601253 0 129.346163L526.435444 868.73305c35.744909 35.744909 93.601253 35.744909 129.346163 0l100.475274-100.475274c-47.659879-41.47326-52.700828-113.650481-11.342135-161.31036 41.47326-47.659879 113.650481-52.700828 161.31036-11.342135 4.009846 3.551578 7.790557 7.217722 11.342135 11.342135l77.791005-77.791005z m-466.516894 31.620497L334.764824 366.585813c-8.363392-9.509062-7.446856-23.944507 2.062207-32.307898 8.707093-7.67599 21.653166-7.67599 30.360259 0l194.076527 194.076527c8.363392 9.509062 7.446856 23.944507-2.062206 32.307899-8.707093 7.67599-21.767733 7.67599-30.360259 0.114567zM654.979638 423.525621L472.016111 240.447527c-8.363392-9.509062-7.446856-23.944507 2.062206-32.307898 8.707093-7.67599 21.653166-7.67599 30.36026 0L687.402103 391.103155c8.363392 9.509062 7.446856 23.944507-2.062206 32.307899-8.707093 7.67599-21.653166 7.67599-30.360259 0.114567z"  horiz-adv-x="1024" />

    
    <glyph glyph-name="yunpan" unicode="&#58906;" d="M1462.857143 249.417143c0 208.091429-163.620571 377.344-364.690286 377.344-14.701714 0-29.110857-1.170286-43.300571-2.925714C1002.276571 783.945143 855.04 896 688.420571 896c-213.577143 0-387.218286-179.712-387.218285-400.676571C135.094857 495.323429 0 355.474286 0 183.588571S135.094857-128 301.202286-128h817.444571v1.097143C1310.208-115.858286 1462.857143 48.493714 1462.857143 249.417143z m-364.690286-288.402286H301.202286c-118.637714 0-215.186286 99.913143-215.186286 222.646857s96.548571 222.573714 215.186286 222.573715h86.016V495.323429c0 171.812571 135.094857 311.588571 301.202285 311.588571 126.976 0 239.177143-83.894857 282.112-204.507429-138.24-53.613714-237.056-191.414857-237.056-352.987428h86.016c0 158.939429 125.074286 288.256 278.674286 288.256s278.674286-129.316571 278.674286-288.182857c0-159.085714-125.074286-288.475429-278.674286-288.475429z"  horiz-adv-x="1462" />

    
    <glyph glyph-name="zaixiantinggemianliuliang" unicode="&#58967;" d="M230.14 344.8c-16.11 0-29.17-13.06-29.17-29.17v-213.9c0-16.11 13.06-29.17 29.17-29.17s29.17 13.06 29.17 29.17v213.9c0 16.11-13.06 29.17-29.17 29.17zM346.81 344.8c-16.11 0-29.17-13.06-29.17-29.17v-213.9c0-16.11 13.06-29.17 29.17-29.17s29.17 13.06 29.17 29.17v213.9c0 16.11-13.06 29.17-29.17 29.17zM463.49 344.8c-16.11 0-29.17-13.06-29.17-29.17v-213.9c0-16.11 13.06-29.17 29.17-29.17s29.17 13.06 29.17 29.17v213.9c-0.01 16.11-13.07 29.17-29.17 29.17zM847.72 817.59c-15.23 9.56-32.89 14.38-50.88 14.38H226.8c-17.77 0-35.21-4.69-50.31-14.05-35.63-22.11-96.07-69.88-111.64-161.98v-593.76c0-69.44 56.29-125.73 125.73-125.73h643.05c69.44 0 125.73 56.29 125.73 125.73V655.93c-15.27 91.33-75.87 139.21-111.64 161.66z m-643.86-54.06c9.65 6.61 21.09 10.1 32.79 10.1h550.01a58.15 58.15 0 0 0 33.21-10.39c28.23-19.62 66.73-48 79.65-107.3H124.74c13.35 59.92 51.62 88.74 79.12 107.59z m697.15-701.36c0-37.16-30.23-67.4-67.4-67.4H190.57c-37.15 0-67.39 30.23-67.39 67.4V597.59h777.83v-535.42z"  horiz-adv-x="1024" />

    
    <glyph glyph-name="erji" unicode="&#58908;" d="M827.904 600.0640000000001c17.408 6.656 12.8 13.824 12.8 13.824s-18.432 49.152-22.528 56.32c-2.56 4.608-20.48-3.584-20.48-3.584l0.512-1.536c-20.992 35.84-48.128 64-82.432 79.36 0 0-11.264 5.12-29.696 11.264 48.64-67.072 179.712-295.936 77.824-696.32 28.16 17.92 52.736 49.664 69.632 104.96 31.232 81.408 44.032 289.28-5.632 435.712zM655.872 763.904s0 0.512 0 0c-11.776 3.072-24.576 5.632-38.4 7.68 0 0-103.424 9.216-249.856 61.44C221.184 885.76 129.024 809.984 130.048 705.5360000000001c1.536-87.04 55.808-166.912 105.472-227.84l63.488 52.224C216.064 629.76 191.488 737.28 240.64 758.784c50.688 22.528 146.944 15.36 273.408-179.712s37.376-515.072-108.544-579.584c0 0-25.6-13.312-49.152-20.48-23.04-7.168-33.792-55.296 3.584-60.416s105.472 29.184 191.488 103.424c11.776 8.704 22.016 30.208 94.72 20.992 32.256-4.096 65.536-5.12 95.744 6.144 128 481.28-83.968 712.704-86.016 714.752zM464.384 258.55999999999995c16.896 33.28 53.248 126.976 3.072 238.08-55.808 96.256-80.896 35.84-80.896 35.84s-5.12-11.264 10.24-33.28c0 0 32.768-38.912 27.136-95.744 6.144-33.792 19.456-97.792 40.448-144.896zM455.168 235.00800000000004c-31.744 60.416-48.64 160.768-52.224 182.784C386.56 440.32 358.4 473.6 311.296 516.608l-0.512-0.512-63.488-52.736c18.432-22.016 35.328-40.448 47.616-55.808 51.712-60.416-10.752-49.152-10.752-49.152s-9.728 0-36.352 13.312l-28.672-17.92s-4.608-4.096 8.704-42.496c5.632-14.848 4.096-64 4.096-64s2.048-115.712 123.904-103.936c0 0 82.944 18.944 99.328 91.648z m-112.64 140.288l-7.168 10.752c-4.096 6.144-2.56 14.336 3.584 18.432 6.144 4.096 14.336 2.56 18.432-3.584l7.168-10.752c4.096-6.144 2.56-14.336-3.584-18.432-6.144-4.096-14.336-2.56-18.432 3.584z"  horiz-adv-x="1024" />

    
    <glyph glyph-name="gexingzhuangban" unicode="&#59003;" d="M657.066667 21.333333H352c-59.733333 0-106.666667 46.933333-106.666667 106.666667v6.4l12.8 247.466667c-2.133333-2.133333-6.4-4.266667-8.533333-4.266667-14.933333-6.4-32-6.4-46.933333 0-6.4 2.133333-12.8 6.4-19.2 12.8l-83.2 81.066667c-25.6 23.466667-25.6 64-2.133334 89.6l145.066667 160c19.2 21.333333 44.8 34.133333 74.666667 34.133333 27.733333 2.133333 55.466667-8.533333 76.8-27.733333 2.133333 0 2.133333-2.133333 4.266666-4.266667 25.6-25.6 59.733333-36.266667 106.666667-36.266667s83.2 12.8 106.666667 36.266667c19.2 19.2 46.933333 32 74.666666 32 27.733333 0 55.466667-10.666667 74.666667-32l4.266667-4.266667 145.066666-160c23.466667-25.6 21.333333-64-2.133333-89.6l-83.2-81.066666c-10.666667-10.666667-25.6-17.066667-42.666667-17.066667-10.666667 0-21.333333 4.266667-32 8.533333l12.8-247.466666c2.133333-59.733333-42.666667-108.8-100.266666-113.066667-4.266667 2.133333-4.266667 2.133333-6.4 2.133333zM270.933333 443.733333c19.2 0 32-14.933333 32-32L288 128c0-36.266667 27.733333-64 64-64H661.333333c36.266667 2.133333 61.866667 32 59.733334 68.266667l-14.933334 279.466666c0 12.8 6.4 25.6 19.2 29.866667 8.533333 2.133333 17.066667 2.133333 23.466667 0 8.533333-4.266667 12.8-8.533333 17.066667-17.066667 0-2.133333 2.133333-4.266667 4.266666-6.4 4.266667-4.266667 8.533333-6.4 12.8-6.4 4.266667 0 8.533333 2.133333 12.8 4.266667l83.2 81.066667c8.533333 8.533333 8.533333 21.333333 0 29.866666l-147.2 162.133334c-12.8 12.8-27.733333 19.2-44.8 19.2s-34.133333-6.4-44.8-19.2c-32-32-78.933333-49.066667-136.533333-49.066667s-104.533333 17.066667-136.533333 49.066667l-2.133334 2.133333c-12.8 10.666667-29.866667 17.066667-46.933333 17.066667-17.066667 0-32-8.533333-44.8-21.333334L128 529.066667c-8.533333-8.533333-6.4-21.333333 0-29.866667l83.2-81.066667c2.133333-2.133333 4.266667-2.133333 6.4-4.266666 4.266667-2.133333 8.533333-2.133333 12.8 0 4.266667 2.133333 8.533333 4.266667 10.666667 10.666666 4.266667 10.666667 17.066667 19.2 29.866666 19.2zM725.333333 407.466667c2.133333 0 2.133333 0 0 0 2.133333 0 2.133333 0 0 0z m23.466667 6.4z"  horiz-adv-x="1024" />

    
    <glyph glyph-name="random" unicode="&#58892;" d="M911.478154 213.34646199999997a38.990769 38.990769 0 0 1-30.326154 13.115076c-21.897846-0.827077-38.912-19.298462-38.084923-41.196307 0.472615-11.933538 6.380308-22.055385 14.966154-28.987077l47.182769-47.222154a289.201231 289.201231 0 0 0-139.264 61.794462L331.697231 638.9366150000001A369.388308 369.388308 0 0 1 53.956923 764.849231a39.384615 39.384615 0 1 1 0-78.769231h0.039385c83.652923 0 163.249231-36.115692 219.214769-99.879385l433.624615-468.007384 8.27077-7.483077a369.664 369.664 0 0 1 194.048-81.762462l-52.539077-51.081846 0.984615-0.945231a39.069538 39.069538 0 0 1-17.604923-33.71323c0.866462-21.897846 19.298462-38.990769 41.156923-38.124308a38.912 38.912 0 0 1 29.971692 16.699077l0.393846-0.393846 148.48 144.226461-148.046769 148.204308-0.472615-0.472615zM911.163077 865.240615a38.990769 38.990769 0 0 1-30.011077 16.699077 39.660308 39.660308 0 0 1-41.117538-38.124307 38.990769 38.990769 0 0 1 17.604923-33.673847l-0.984616-1.024 48.600616-47.261538a366.08 366.08 0 0 1-217.481847-106.259692l-128.551384-139.34277 0.196923-0.196923a38.990769 38.990769 0 0 1-10.633846-26.505846 39.384615 39.384615 0 0 1 39.384615-39.384615 38.990769 38.990769 0 0 1 28.750769 12.878769l0.196923-0.196923 126.582154 137.294769a287.665231 287.665231 0 0 0 166.675693 82.944l-52.224-52.302769a39.108923 39.108923 0 0 1-15.044923-29.026462c-0.866462-21.897846 16.147692-40.329846 38.045538-41.196307a38.990769 38.990769 0 0 1 30.326154 13.115077l0.472615-0.433231 148.046769 148.164923-148.48 144.226462-0.393846-0.393847zM415.783385 341.11015399999997a38.872615 38.872615 0 0 1-28.672-12.760616l-0.196923 0.157539-133.750154-144.265846A289.201231 289.201231 0 0 0 53.956923 105.156923v-0.472615c-0.866462 0.039385-1.575385 0.472615-2.441846 0.472615a39.384615 39.384615 0 1 1 0-78.769231c0.866462 0 1.575385 0.472615 2.441846 0.472616v-0.472616c94.562462 0 184.516923 35.721846 255.094154 102.4l135.601231 146.156308-0.196923 0.157538a38.872615 38.872615 0 0 1 10.712615 26.624 39.384615 39.384615 0 0 1-39.384615 39.384616"  horiz-adv-x="1063" />

    
    <glyph glyph-name="bofang2" unicode="&#58928;" d="M546.816 896c-282.624 0-512-229.376-512-512s229.376-512 512-512 512 229.376 512 512S829.44 896 546.816 896z m0-972.8c-254.464 0-460.8 206.336-460.8 460.8s206.336 460.8 460.8 460.8 460.8-206.336 460.8-460.8-206.336-460.8-460.8-460.8z m232.448 497.152c-79.872 54.272-224.256 135.168-306.176 185.856-33.792 21.504-61.952 12.8-65.024-25.088-2.048-100.864 0-294.912 0-397.312 1.536-37.888 35.328-43.008 64.512-27.648l306.176 185.344c-0.512 0.512 62.464 35.328 0.512 78.848z"  horiz-adv-x="1084" />

    
    <glyph glyph-name="scan_icon" unicode="&#58913;" d="M39.78 495.11a27.77 27.77 0 0 1 27.78 27.78V828.44h305.55a27.78 27.78 0 1 1 0 55.56H39.78A27.77 27.77 0 0 1 12 856.22v-333.33a27.77 27.77 0 0 1 27.78-27.78zM373.11-60.440000000000055H67.56V245.11a27.78 27.78 0 1 1-55.56 0v-333.33A27.77 27.77 0 0 1 39.78-116h333.33a27.78 27.78 0 0 1 0 55.56zM984.22 884H650.89a27.78 27.78 0 1 1 0-55.56h305.55v-305.55a27.78 27.78 0 1 1 55.56 0V856.22A27.76 27.76 0 0 1 984.22 884zM984.22 272.89a27.76 27.76 0 0 1-27.78-27.78v-305.55H650.89a27.78 27.78 0 1 1 0-55.56h333.33a27.76 27.76 0 0 1 27.78 27.78V245.11a27.76 27.76 0 0 1-27.78 27.78zM984.22 411.78H39.78a27.78 27.78 0 0 1 0-55.56h944.44a27.78 27.78 0 0 1 0 55.56z"  horiz-adv-x="1024" />

    
    <glyph glyph-name="yueliang" unicode="&#58936;" d="M873.83 22.17c-199.919-199.92-524.032-199.92-723.95 0-45.125 45.124-79.514 96.785-104.278 151.722 188.4-84.838 417.417-50.449 572.177 104.329C772.54 432.98 806.946 661.999 722.091 850.398c54.954-24.764 106.598-59.153 151.74-104.277 199.918-199.92 199.918-524.032 0-723.951zM498.108 385.519l-22.614-36.37-5.632 42.275-42.137 9.933 39.117 18.33-3.414 42.495 29.799-30.941 40.021 16.35-20.685-37.462 28.16-32.41-42.615 7.8z m-7.441 141.039L364.85 586.667l-101.086-96.034 18.296 138.222-122.59 66.458 137.114 25.327L321.91 857.754 388.37 735.18l138.24 18.278-96.051-101.086 60.109-125.815zM251.05 304.777l-34.031-54.563-8.465 63.42-63.369 14.9 58.829 27.494-5.154 63.76 44.834-46.438 60.194 24.525-31.13-56.2 42.36-48.606-64.068 11.708z"  horiz-adv-x="1024" />

    
    <glyph glyph-name="bofangliebiao" unicode="&#58921;" d="M362.666667 576l-149.333334-106.666667V682.666667zM469.333333 560h341.333334v32H469.333333zM213.333333 325.333333h597.333334v32H213.333333zM213.333333 112h597.333334v32H213.333333z"  horiz-adv-x="1024" />

    
    <glyph glyph-name="jiugedian" unicode="&#58910;" d="M116.363636 779.636364m-116.363636 0a116.363636 116.363636 0 1 1 232.727273 0 116.363636 116.363636 0 1 1-232.727273 0ZM465.454545 779.636364m-116.363636 0a116.363636 116.363636 0 1 1 232.727273 0 116.363636 116.363636 0 1 1-232.727273 0ZM814.545455 779.636364m-116.363637 0a116.363636 116.363636 0 1 1 232.727273 0 116.363636 116.363636 0 1 1-232.727273 0ZM116.363636 430.545455m-116.363636 0a116.363636 116.363636 0 1 1 232.727273 0 116.363636 116.363636 0 1 1-232.727273 0ZM465.454545 430.545455m-116.363636 0a116.363636 116.363636 0 1 1 232.727273 0 116.363636 116.363636 0 1 1-232.727273 0ZM814.545455 430.545455m-116.363637 0a116.363636 116.363636 0 1 1 232.727273 0 116.363636 116.363636 0 1 1-232.727273 0ZM116.363636 81.454545m-116.363636 0a116.363636 116.363636 0 1 1 232.727273 0 116.363636 116.363636 0 1 1-232.727273 0ZM465.454545 81.454545m-116.363636 0a116.363636 116.363636 0 1 1 232.727273 0 116.363636 116.363636 0 1 1-232.727273 0ZM814.545455 81.454545m-116.363637 0a116.363636 116.363636 0 1 1 232.727273 0 116.363636 116.363636 0 1 1-232.727273 0Z"  horiz-adv-x="1024" />

    
    <glyph glyph-name="wodedingdan" unicode="&#58918;" d="M197-32.8c-35.6 0.1-64.5 29.2-64.5 64.8V732.2c0 35.7 28.9 64.8 64.6 64.9h403.6c27.7 0 61.6-15 80.6-35.6l179.3-194.9c18.4-20 31.7-54.2 31.7-81.3V32c0.1-35.7-28.9-64.8-64.5-64.9H197z m-5 59.6l641.1-0.1-0.3 459.2-0.2 1.4-0.3 4.9-5 0.2H652.6c-35.8 0-64.9 29.1-64.9 64.9V737.6H177.6l14.4-8.4v-702.4z m455.3 525.3l146-0.1-146 158.7v-158.6zM372.4 142.3c-16.4 0-29.8 13.3-29.8 29.7s13.4 29.8 29.8 29.8h280.1c16.4 0 29.8-13.4 29.8-29.8s-13.3-29.7-29.8-29.7H372.4z m0 175.1c-16.4 0-29.8 13.4-29.8 29.8s13.4 29.7 29.8 29.7h280.1c16.4 0 29.8-13.3 29.8-29.7s-13.3-29.8-29.8-29.8H372.4z"  horiz-adv-x="1024" />

    
    <glyph glyph-name="gouwuche" unicode="&#58915;" d="M941.527805 144.215655H387.447784a69.584731 69.584731 0 0 0-69.399172 58.080055l-64.945749 442.930011a66.059105 66.059105 0 0 0 15.58698 52.698836 71.254765 71.254765 0 0 0 53.812192 24.308266h683.600401a70.512528 70.512528 0 0 0 53.626633-24.308266 66.059105 66.059105 0 0 0 15.58698-52.698836l-64.574631-442.744451a69.399172 69.399172 0 0 0-69.213613-58.265615zM322.502035 685.492085a34.328467 34.328467 0 0 1-25.79274-11.504675 28.947248 28.947248 0 0 1-6.865694-23.009352l64.574631-442.93001a32.287315 32.287315 0 0 1 33.029552-26.720537h554.45114a32.101756 32.101756 0 0 1 32.472874 26.163859l64.574631 442.93001a27.648333 27.648333 0 0 1-6.865693 23.009352 33.77179 33.77179 0 0 1-25.607181 11.504675zM972.330646-127.999814a122.654686 122.654686 0 1 0 122.654687 122.654686 122.840246 122.840246 0 0 0-122.654687-122.654686z m0 208.011957a85.54283 85.54283 0 1 1 85.54283-85.357271 85.54283 85.54283 0 0 1-85.54283 85.357271zM347.18142-127.999814a122.654686 122.654686 0 1 0 122.469127 122.654686 122.840246 122.840246 0 0 0-122.469127-122.654686z m0 208.011957a85.54283 85.54283 0 1 1 85.35727-85.357271 85.54283 85.54283 0 0 1-85.35727 85.357271zM284.647941 537.601336a18.555928 18.555928 0 0 0-17.442573 15.401421l-37.111856 215.248769a77.563781 77.563781 0 0 1-63.832394 64.57463L16.329217 858.618897a18.815711 18.815711 0 1 0 6.309016 37.111856l151.416375-25.79274a113.562282 113.562282 0 0 0 94.449675-95.74859l37.111857-214.506532a18.555928 18.555928 0 0 0-15.215861-21.339318 13.731387 13.731387 0 0 0-5.752338-0.742237z"  horiz-adv-x="1095" />

    
    <glyph glyph-name="wodediantai" unicode="&#58890;" d="M192.736 288.256A327.616 327.616 0 0 0 176 392c0 181.12 146.88 328 328 328S832 573.12 832 392c0-164.992-122.56-303.744-284.608-325.152a24 24 0 1 1 6.272-47.584C739.52 43.808 880 202.848 880 392 880 599.68 711.68 768 504 768S128 599.68 128 392c0-40.864 6.528-80.896 19.2-118.944a24 24 0 1 1 45.536 15.2zM314.208 328.736a200 200 0 1 0 216.256-135.008 24 24 0 0 1 6.272-47.584A248.032 248.032 0 0 1 504 640a248 248 0 0 1-235.328-326.432 24 24 0 0 1 45.536 15.168zM463.392 98.624a92.8 92.8 0 0 0 0.608-10.624c0-58.496-54.592-104-120-104S224 29.504 224 88 278.592 192 344 192c26.816 0 51.84-7.68 72-20.704V424a24 24 0 0 0 13.28 21.44l128 64a24 24 0 0 0 34.72-21.44v-96a24 24 0 1 0-48 0v57.152l-80-40v-305.152a24.064 24.064 0 0 0-0.608-5.376zM344 32c40.64 0 72 26.144 72 56s-31.36 56-72 56-72-26.144-72-56S303.36 32 344 32zM450.72 306.56l128 64a24 24 0 1 1-21.44 42.88l-128-64a24 24 0 1 1 21.44-42.88z"  horiz-adv-x="1024" />

    
    <glyph glyph-name="cebianlan_qingshaonianmoshi_" unicode="&#58923;" d="M897.861818 749.381818h5.12a81.221818 81.221818 0 0 0 65.163637-77.730909v-6.050909c0-217.832727-223.418182-393.541818-432.872728-344.436364v-321.163636a34.909091 34.909091 0 0 0-69.818182 0V320.930909A312.32 312.32 0 0 0 88.203636 626.734545v8.145455a75.636364 75.636364 0 0 0 57.949091 68.421818 55.156364 55.156364 0 0 0 7.912728 1.861818 313.483636 313.483636 0 0 0 347.694545-197.352727C557.149091 664.669091 726.574545 779.636364 897.861818 749.381818zM552.96 388.654545c165.469091-37.236364 345.134545 104.727273 345.367273 277.178182v3.025455a11.170909 11.170909 0 0 1-9.309091 11.170909h-3.025455C716.334545 709.818182 545.28 557.847273 552.96 388.654545zM167.796364 636.741818h-5.12a5.585455 5.585455 0 0 1-4.421819-5.352727 44.916364 44.916364 0 0 1 0-5.352727 242.734545 242.734545 0 0 1 292.77091-236.916364A242.967273 242.967273 0 0 1 167.796364 636.741818z"  horiz-adv-x="1024" />

    


  </font>
</defs>
</svg>
